<?xml version="1.0" encoding="UTF-8" standalone="no"?>
<!-- Created with Inkscape (http://www.inkscape.org/) -->

<svg
   xmlns:dc="http://purl.org/dc/elements/1.1/"
   xmlns:cc="http://creativecommons.org/ns#"
   xmlns:rdf="http://www.w3.org/1999/02/22-rdf-syntax-ns#"
   xmlns:svg="http://www.w3.org/2000/svg"
   xmlns="http://www.w3.org/2000/svg"
   xmlns:sodipodi="http://sodipodi.sourceforge.net/DTD/sodipodi-0.dtd"
   xmlns:inkscape="http://www.inkscape.org/namespaces/inkscape"
   width="195mm"
   height="63mm"
   viewBox="0 0 195 63"
   version="1.1"
   id="svg8"
   inkscape:version="0.92.4 (5da689c313, 2019-01-14)"
   sodipodi:docname="logo-2.svg">
  <defs
     id="defs2" />
  <sodipodi:namedview
     id="base"
     pagecolor="#ffffff"
     bordercolor="#666666"
     borderopacity="1.0"
     inkscape:pageopacity="0.0"
     inkscape:pageshadow="2"
     inkscape:zoom="0.49497475"
     inkscape:cx="112.74941"
     inkscape:cy="-97.328765"
     inkscape:document-units="mm"
     inkscape:current-layer="g4723"
     showgrid="false"
     showguides="false"
     inkscape:window-width="1920"
     inkscape:window-height="1017"
     inkscape:window-x="-8"
     inkscape:window-y="-8"
     inkscape:window-maximized="1" />
  <metadata
     id="metadata5">
    <rdf:RDF>
      <cc:Work
         rdf:about="">
        <dc:format>image/svg+xml</dc:format>
        <dc:type
           rdf:resource="http://purl.org/dc/dcmitype/StillImage" />
        <dc:title></dc:title>
      </cc:Work>
    </rdf:RDF>
  </metadata>
  <g
     inkscape:label="Layer 1"
     inkscape:groupmode="layer"
     id="layer1"
     transform="translate(0,-234)">
    <g
       id="g3803"
       transform="translate(-449.32817,-100.85479)" />
    <flowRoot
       xml:space="preserve"
       id="flowRoot3805"
       style="font-style:normal;font-weight:normal;font-size:40px;line-height:1.25;font-family:sans-serif;letter-spacing:0px;word-spacing:0px;fill:#000000;fill-opacity:1;stroke:none"
       transform="scale(0.26458333)"><flowRegion
         id="flowRegion3807"><rect
           id="rect3809"
           width="177.78685"
           height="96.974648"
           x="-886.91394"
           y="882.10339" /></flowRegion><flowPara
         id="flowPara3811">LINUX_D</flowPara></flowRoot>    <g
       id="g4723"
       transform="matrix(0.61715857,0,0,0.61715857,350.20196,182.4994)">
      <g
         id="g4695"
         transform="translate(-449.32817,-100.85479)">
        <path
           sodipodi:nodetypes="cscscccc"
           inkscape:connector-curvature="0"
           id="path3737"
           d="m -84.27822,192.18402 c 12.500513,2.11853 8.781637,21.08999 0.494997,25.2354 -3.480967,1.74136 -11.094997,0.8823 -18.250797,2.81779 0,0 3.02806,-0.077 1.32624,-3.30112 -2.20683,-4.18085 -2.22795,-4.00418 -3.52219,-4.55509 -0.46838,-0.10026 -1.10506,-0.10733 -1.65136,-0.0515 3.18931,-21.06618 14.120103,-21.45045 21.60311,-20.14549 z"
           style="fill:#000000;stroke:#000000;stroke-width:0.26458332px;stroke-linecap:butt;stroke-linejoin:miter;stroke-opacity:1" />
        <path
           sodipodi:nodetypes="csssccc"
           inkscape:connector-curvature="0"
           id="path3713"
           d="m -105.88133,212.32951 c 0,0 1.34411,-19.19528 15.119049,-20.41072 12.851191,-1.13393 19.686621,6.91182 20.355361,13.08997 0.635014,5.86658 -4.662793,18.81714 -2.340389,22.12924 9.413326,13.42483 1.98181,35.73781 -5.717336,44.9092 -1.515365,1.93933 -4.082464,3.80733 -6.778655,3.37108 -8.920911,-0.7541 -7.455423,-2.77508 -17.76649,-0.41217"
           style="fill:none;stroke:#000000;stroke-width:1.70000005;stroke-linecap:butt;stroke-linejoin:miter;stroke-miterlimit:4;stroke-dasharray:none;stroke-opacity:1" />
        <path
           sodipodi:nodetypes="ccc"
           inkscape:connector-curvature="0"
           id="path3717"
           d="m -96.90439,204.67549 c 0.77837,-5.84824 7.22454,-5.90403 7.532659,-0.13364 0.561513,8.54458 -8.781939,8.09212 -7.532659,0.13364 z"
           style="fill:#ffffff;stroke:#000000;stroke-width:0.26458332px;stroke-linecap:butt;stroke-linejoin:miter;stroke-opacity:1" />
        <path
           style="stroke-width:0.36480978"
           d="m -92.327316,206.37342 a 2.3720171,3.3742778 0 0 1 -2.372014,3.37428 2.3720171,3.3742778 0 0 1 -2.37202,-3.37428 2.3720171,3.3742778 0 0 1 2.37202,-3.37427 2.3720171,3.3742778 0 0 1 2.372014,3.37427 z"
           id="path3723"
           inkscape:connector-curvature="0" />
        <path
           sodipodi:nodetypes="ccccc"
           inkscape:connector-curvature="0"
           id="path3725"
           d="m -105.88133,212.32951 c 2.63023,-0.174 2.87572,0.65646 4.12416,2.69169 2.41657,3.71761 1.20195,4.95167 -0.13542,5.13517 -2.50433,0.22627 -9.62198,-1.17516 -9.62198,-1.17516 0,0 4.31768,-5.3044 5.63324,-6.6517 z"
           style="fill:none;stroke:#000000;stroke-width:1.70000005;stroke-linecap:butt;stroke-linejoin:miter;stroke-miterlimit:4;stroke-dasharray:none;stroke-opacity:1" />
        <path
           sodipodi:nodetypes="ccc"
           inkscape:connector-curvature="0"
           id="path3731"
           d="m -102.76758,275.82462 c -2.37796,-10.71075 -9.97482,-26.5157 0.73356,-55.58741 v 0"
           style="fill:none;stroke:#000000;stroke-width:1.70000005;stroke-linecap:butt;stroke-linejoin:miter;stroke-miterlimit:4;stroke-dasharray:none;stroke-opacity:1" />
        <path
           sodipodi:nodetypes="cccccc"
           inkscape:connector-curvature="0"
           id="path3741"
           d="m -103.54428,224.64976 c 0,0 5.70321,5.38918 13.066535,4.57461 6.257954,-0.61328 12.259336,-3.51175 12.263841,-3.51585 4.471446,-1.5127 2.991183,26.14434 0.163279,30.70942 -8.447984,9.99235 -23.959475,7.09773 -24.898145,3.98542 -1.76513,-5.20597 -6.32056,-17.97728 -0.59551,-35.7536 z"
           style="fill:#000000;stroke:#000000;stroke-width:0.26458332px;stroke-linecap:butt;stroke-linejoin:miter;stroke-opacity:1" />
        <path
           sodipodi:nodetypes="cccc"
           inkscape:connector-curvature="0"
           id="path3733"
           d="m -80.026555,237.02179 c 0.488062,3.44586 -1.599319,9.44096 -2.211319,12.15367 3.546078,-1.71393 7.042611,-4.66871 8.32287,-11.4541 -2.173977,-1.62431 -6.095244,-1.97285 -6.111551,-0.69957 z"
           style="fill:#ffffff;stroke:#000000;stroke-width:1.70000005;stroke-linecap:butt;stroke-linejoin:miter;stroke-miterlimit:4;stroke-dasharray:none;stroke-opacity:1" />
        <path
           sodipodi:nodetypes="cc"
           inkscape:connector-curvature="0"
           id="path3735"
           d="m -72.702803,218.80477 c -1.498841,2.43133 -11.139072,6.73597 -16.587063,5.18571"
           style="fill:none;stroke:#000000;stroke-width:1.70000005;stroke-linecap:butt;stroke-linejoin:miter;stroke-miterlimit:4;stroke-dasharray:none;stroke-opacity:1" />
        <path
           style="fill:none;stroke:#000000;stroke-width:1.70000005;stroke-linecap:butt;stroke-linejoin:miter;stroke-miterlimit:4;stroke-dasharray:none;stroke-opacity:1"
           d="m -105.58406,232.45805 c -2.86775,3.96751 -3.79728,13.89617 -4.58542,17.39149 1.14069,-2.02421 1.88394,-3.11736 2.64187,-3.94027"
           id="path3739"
           inkscape:connector-curvature="0"
           sodipodi:nodetypes="ccc" />
        <path
           sodipodi:nodetypes="ccc"
           inkscape:connector-curvature="0"
           id="path3747"
           d="m -77.104126,261.90872 c -2.377048,3.09084 -4.049938,7.66563 -7.984747,7.98475 -9.307335,1.1234 -11.880467,-2.26976 -18.956587,-0.4171"
           style="fill:none;stroke:#000000;stroke-width:1.70000005;stroke-linecap:butt;stroke-linejoin:miter;stroke-miterlimit:4;stroke-dasharray:none;stroke-opacity:1" />
      </g>
      <text
         id="text3815"
         y="156.00105"
         x="-512.33893"
         style="font-style:normal;font-weight:normal;font-size:10.58333302px;line-height:1.25;font-family:sans-serif;letter-spacing:0px;word-spacing:0px;fill:#000000;fill-opacity:1;stroke:none;stroke-width:0.26458332"
         xml:space="preserve"><tspan
           style="font-style:normal;font-variant:normal;font-weight:normal;font-stretch:normal;font-size:50.79999924px;font-family:'Rockwell Extra Bold';-inkscape-font-specification:'Rockwell Extra Bold, ';stroke-width:0.26458332"
           y="156.00105"
           x="-512.33893"
           id="tspan3813"
           sodipodi:role="line">LINUXID</tspan></text>
    </g>
  </g>
</svg>
